<svg width="20" height="23" viewBox="0 0 20 23" fill="none" xmlns="http://www.w3.org/2000/svg">
<g id="Group">
<path id="Vector" d="M16.7937 8.11339L15.8817 19.5933C15.8289 20.2061 15.3253 20.6674 14.7126 20.6674H5.44411C4.82786 20.6674 4.32784 20.2062 4.27499 19.5969L3.36299 8.11344C3.33135 7.72611 2.99676 7.43735 2.60585 7.46555C2.21851 7.49719 1.92976 7.83537 1.95796 8.2227L2.86996 19.7097C2.98264 21.0584 4.08838 22.0761 5.44411 22.0761H14.7161C16.0683 22.0761 17.1742 21.0584 17.2903 19.7062L18.2023 8.22267C18.2339 7.83534 17.9452 7.49728 17.5544 7.46552C17.1635 7.43733 16.8254 7.72608 16.7938 8.11341L16.7937 8.11339Z" fill="#222222"/>
<path id="Vector_2" d="M6.4372 4.09197C6.82453 4.09197 7.14149 3.775 7.14149 3.38767V2.00019C7.14149 1.67269 7.4056 1.40858 7.7331 1.40858H11.8849C12.2124 1.40858 12.4765 1.67269 12.4765 2.00019V3.38767C12.4765 3.775 12.7935 4.09197 13.1808 4.09197C13.5681 4.09197 13.8851 3.775 13.8851 3.38767V2.00019C13.8851 0.898002 12.9871 0 11.8849 0H7.7331C6.63091 0 5.73291 0.898031 5.73291 2.00019V3.38767C5.73291 3.77856 6.04632 4.09197 6.4372 4.09197Z" fill="#222222"/>
<path id="Vector_3" d="M0.704292 6.56398H18.9842C19.3715 6.56398 19.6885 6.24702 19.6885 5.85969C19.6885 5.47236 19.3715 5.1554 18.9842 5.1554H0.704292C0.316961 5.1554 0 5.47236 0 5.85969C0 6.24702 0.316961 6.56398 0.704292 6.56398Z" fill="#222222"/>
</g>
</svg>
